<svg version="1" xmlns="http://www.w3.org/2000/svg" width="640" height="640" viewBox="0 0 480.000000 480.000000"><path d="M180.5 55.8c-7.4 2.6-14.1 7.7-18.1 13.7-5.4 8.1-6.4 12.8-6.4 29.6V114l-66.8.2-66.9.3-4.9 3c-3 1.9-6 4.9-7.9 7.9l-3 4.9-.3 147.9L6 426h468l-.2-147.8-.3-147.9-3-4.9c-1.9-3-4.9-6-7.9-7.9l-4.9-3-66.8-.3-66.7-.2-.4-16.8c-.3-15.6-.5-17.1-3-22.4-3.4-7.3-10.3-14.2-17.6-17.6l-5.7-2.7-56-.2c-51.2-.2-56.4-.1-61 1.5zm112.5 24c5.7 2.8 7 6.7 7 21.4V114H180v-12.8c0-14.7 1.3-18.6 7-21.4 3.2-1.6 7.9-1.8 53-1.8s49.8.2 53 1.8zm165.6 43.1c2.4 1.3 5.2 4.1 6.5 6.5l2.4 4.1.3 50.2.3 50.3H378v-36h-54v36H156v-36h-54v36H11.9l.3-50.3.3-50.2 2.3-4.1c2.5-4.3 6.5-7.2 11.6-8.5 1.7-.4 98.7-.6 215.6-.6l212.5.2 4.1 2.4zM150 240v36h-42v-72h42v36zm222 0v36h-42v-72h42v36zm-270 21v21h54v-42h168v42h54v-42h90v180H12V240h90v21z"/></svg>